<mxfile host="app.diagrams.net" modified="2024-03-22T07:16:45.942Z" agent="Mozilla/5.0 (Windows NT 10.0; Win64; x64) AppleWebKit/537.36 (KHTML, like Gecko) Chrome/123.0.0.0 Safari/537.36" version="24.0.7" etag="p69StyZOewTOzjNZ7abL" type="github">
  <diagram name="Page-1" id="9ju3K2aQaccWNM7VSLG_">
    <mxGraphModel>
      <root>
        <mxCell id="0" />
        <mxCell id="1" parent="0" />
      </root>
    </mxGraphModel>
  </diagram>
</mxfile>
